<svg width="182" height="44" viewBox="0 0 182 44" fill="none" xmlns="http://www.w3.org/2000/svg">
<path d="M100.073 30.1513C100.176 31.208 100.24 32.2641 100.071 33.3203C100.06 33.3609 100.049 33.4009 100.038 33.4415C100.019 33.5831 100 33.7252 99.9818 33.8669C99.9691 33.9065 99.9563 33.9461 99.9431 33.9862C99.504 36.3276 98.3049 38.2027 96.4348 39.6556C94.9136 40.8375 93.1802 41.5839 91.3265 42.0585C90.4926 42.2721 89.6532 42.5176 88.802 42.5964C87.5686 42.7107 86.3303 42.8168 85.081 42.7412C83.1626 42.6255 81.3021 42.258 79.4945 41.6231C77.6217 40.965 75.9388 39.9972 74.6125 38.4842C73.8724 37.6398 73.3409 36.677 73.0167 35.6012C72.9871 35.5033 72.977 35.3994 72.9538 35.2778C73.0832 35.2678 73.1861 35.2528 73.2895 35.2528C77.0674 35.2514 80.8453 35.2514 84.6233 35.2532C84.743 35.2532 84.8633 35.2751 84.9831 35.2869C85.0199 35.2983 85.0568 35.3102 85.0933 35.3216C85.6853 35.3521 86.2761 35.3726 86.8481 35.169C88.3998 34.617 89.2383 33.4738 89.5357 31.8966C89.8194 30.3904 89.2866 29.1908 88.1202 28.2403C87.3022 27.5735 86.3717 27.0957 85.4339 26.6298C84.375 26.1038 83.2856 25.6292 82.2681 25.0321C80.0747 23.745 78.4019 21.9601 77.4668 19.5649C77.2104 18.9082 77.1093 18.1913 76.9367 17.5018C76.9262 17.4608 76.9157 17.4198 76.9053 17.3788C76.8734 17.0336 76.857 16.6865 76.806 16.344C76.7431 15.9236 76.893 15.5429 76.9854 15.1498C77.0446 15.0747 77.1234 14.9973 76.964 14.9449C76.647 14.939 76.3305 14.9285 76.0135 14.928C73.8529 14.9267 71.6927 14.9262 69.532 14.929C69.3685 14.929 69.205 14.9558 69.0411 14.9704C69.0051 14.9668 68.9869 14.9836 68.986 15.02C68.347 18.3188 67.7084 21.6176 67.0685 24.9223C66.9214 24.9328 66.818 24.946 66.7142 24.9465C63.4974 24.9474 60.2806 24.9474 57.0638 24.9465C56.9881 24.9465 56.9125 24.9374 56.8369 24.9324C56.8114 24.9073 56.7855 24.8823 56.76 24.8572C57.3871 21.6846 58.0143 18.5119 58.6396 15.3393C58.6601 15.2364 58.6569 15.1289 58.6651 15.0237L58.6901 15.0264L58.7143 15.0196C58.6988 14.9886 58.6838 14.9572 58.6683 14.9262C58.6346 14.9321 58.6004 14.9381 58.5667 14.944C58.0685 14.939 57.5707 14.9294 57.0724 14.929C54.9427 14.9271 52.8135 14.928 50.6839 14.929C50.5181 14.929 50.3523 14.939 50.1865 14.9444C50.156 14.9699 50.1255 14.9959 50.095 15.0214C49.9442 15.7465 49.7857 16.4706 49.6432 17.1975C49.1517 19.7093 48.6658 22.222 48.1771 24.7338C48.1662 24.7912 48.1447 24.8463 48.122 24.9242C48.0277 24.9324 47.9403 24.9469 47.8524 24.9469C44.6223 24.9479 41.3923 24.9479 38.1623 24.9469C38.1017 24.9469 38.0416 24.9383 37.981 24.9337C37.951 24.9087 37.9209 24.8836 37.8913 24.8586C38.0557 24.0893 38.2133 23.3187 38.3855 22.5513C38.6305 21.4573 38.8864 20.3661 39.1356 19.273C39.1511 19.206 39.1474 19.1345 39.1602 18.9683C39.0112 19.1559 38.9156 19.2675 38.8295 19.3859C37.5602 21.1257 36.2868 22.8628 35.0306 24.6122C34.8503 24.8631 34.6645 24.9551 34.3593 24.9547C28.5342 24.946 22.7085 24.9483 16.8834 24.9483C16.7345 24.9483 16.5851 24.9483 16.4125 24.9483C15.9543 22.8514 15.5034 20.7887 15.0525 18.726C15.0247 18.7287 14.9969 18.7319 14.9691 18.7347C14.4304 20.7937 13.892 22.8533 13.3496 24.9251C13.2225 24.9337 13.1187 24.9469 13.0153 24.9469C9.89047 24.9479 6.7652 24.9479 3.64038 24.9469C3.57981 24.9469 3.51969 24.9383 3.45911 24.9337C3.43133 24.9087 3.40355 24.8832 3.37622 24.8581C3.56842 23.9249 3.75379 22.9903 3.95418 22.059C5.0969 16.7603 6.2428 11.4625 7.38825 6.16435C7.51304 5.58729 7.64284 5.01161 7.77629 4.40951C7.87466 4.39539 7.97486 4.36807 8.07506 4.36761C12.4419 4.36579 16.8087 4.3667 21.1755 4.36761C21.2206 4.36761 21.2661 4.37581 21.3112 4.38036C21.3422 4.40541 21.3732 4.43001 21.4041 4.45506C21.554 5.22749 21.712 5.99856 21.8523 6.77282C22.3547 9.54375 22.8493 12.3156 23.3498 15.0865C23.6326 16.6528 23.9214 18.2177 24.2056 19.7835C24.4452 21.1043 24.6829 22.4251 24.9197 23.7464C24.9466 23.8953 24.9621 24.0461 24.9839 24.205C25.2149 24.2419 25.2467 24.0392 25.3219 23.9108C25.9686 22.8127 26.6085 21.711 27.2507 20.6102C30.3309 15.3302 33.412 10.0498 36.4931 4.76931C36.5691 4.63906 36.6484 4.51062 36.7226 4.38719C51.2796 4.38719 65.8161 4.38719 80.4081 4.38719C80.1394 5.74442 79.8761 7.07159 79.6133 8.39831C79.6343 8.4106 79.6552 8.42245 79.6762 8.43474C79.9859 8.12732 80.3152 7.8372 80.6017 7.50928C81.6606 6.29597 83.0078 5.53082 84.4971 4.99613C85.8006 4.52793 87.141 4.2164 88.5351 4.17951C89.4114 4.15674 90.2881 4.09252 91.1639 4.10072C92.1472 4.10983 93.131 4.14854 94.1011 4.35486C94.6772 4.47737 95.272 4.51426 95.8445 4.65044C96.9663 4.91733 98.0484 5.30082 99.0468 5.89518C100.591 6.81472 101.753 8.08132 102.518 9.70635C103.495 11.7818 103.774 13.9907 103.772 16.2875C100.174 16.2875 96.601 16.2875 92.9739 16.2875C93.0381 16.1277 93.0932 15.9915 93.1474 15.8544C93.4093 15.189 93.6343 14.5118 93.6629 13.7903C93.6752 13.4747 93.6771 13.15 93.6169 12.8421C93.4835 12.1621 93.0645 11.7053 92.4041 11.4899C92.19 11.4202 91.9605 11.3965 91.7382 11.3519C91.6977 11.3432 91.6572 11.335 91.6166 11.3264C90.5222 11.2708 89.5006 11.4803 88.6321 12.1904C87.5431 13.0798 87.1674 14.4179 87.5417 15.6996C87.79 16.5499 88.3606 17.0969 89.2132 17.4198C89.9597 17.7022 90.6739 18.0884 91.367 18.4896C93.2676 19.5904 94.9938 20.9208 96.4676 22.5586C98.1291 24.4045 99.3396 26.495 99.8693 28.9453C99.9012 29.0933 99.9212 29.2436 99.9467 29.3926C99.959 29.4331 99.9709 29.4732 99.9832 29.5137C100.004 29.6849 100.024 29.8562 100.044 30.0274C100.053 30.0689 100.063 30.1099 100.073 30.1513Z" fill="#5138ED"/>
<path d="M65.0201 35.3362C65.0205 35.4565 65.0433 35.5817 65.0183 35.6965C64.5933 37.6508 64.1625 39.6042 63.7321 41.5572C63.7294 41.5695 63.7134 41.579 63.6811 41.6159C60.298 41.6159 56.8922 41.6159 53.4363 41.6159C53.8999 39.484 54.3563 37.3866 54.8149 35.2793C54.9347 35.2684 55.0221 35.2529 55.1096 35.2529C58.3264 35.2515 61.5432 35.252 64.76 35.2524C64.8206 35.2524 64.8812 35.2602 64.9413 35.2643C64.9673 35.2884 64.9937 35.3121 65.0201 35.3362Z" fill="#5138ED"/>
<path d="M46.1462 35.3768C45.7021 37.4486 45.2585 39.5209 44.8099 41.6141C41.4724 41.6141 38.159 41.6141 34.7874 41.6141C35.1558 39.4954 35.5202 37.4008 35.8868 35.2916C35.9943 35.2766 36.0808 35.2538 36.1669 35.2538C39.412 35.252 42.6566 35.2524 45.9016 35.2533C45.9617 35.2533 46.0223 35.2638 46.0824 35.2693C46.1034 35.3048 46.1248 35.3408 46.1462 35.3768Z" fill="#5138ED"/>
<path d="M11.3588 35.3365C11.0464 36.8017 10.7344 38.2673 10.4206 39.7325C10.2876 40.3537 10.1501 40.974 10.0102 41.6157C6.67729 41.6157 3.36256 41.6157 0 41.6157C0.458634 39.4952 0.911803 37.402 1.3677 35.2932C1.47246 35.2773 1.55854 35.2536 1.64416 35.2532C4.81361 35.2518 7.98351 35.2523 11.153 35.2536C11.1981 35.2536 11.2431 35.2627 11.2887 35.2673C11.3119 35.2905 11.3356 35.3137 11.3588 35.3365Z" fill="#5138ED"/>
<path d="M27.7175 35.3712C27.4333 35.8189 27.1537 36.2698 26.8645 36.7143C25.8716 38.2405 24.8682 39.7599 23.8868 41.2934C23.7178 41.5571 23.5374 41.655 23.2282 41.6486C22.2736 41.6295 21.318 41.6418 20.3438 41.6418C20.3028 41.5493 20.2564 41.4728 20.2345 41.3895C19.7463 39.5276 19.2603 37.6648 18.7757 35.8021C18.7607 35.7438 18.7598 35.6818 18.7521 35.6217C18.7393 35.5862 18.7266 35.5511 18.7133 35.5156C18.7029 35.4555 18.6928 35.3958 18.6824 35.3357C18.7092 35.312 18.7361 35.2879 18.763 35.2642C20.4768 35.2601 22.1911 35.2528 23.905 35.2523C25.1638 35.2523 26.4227 35.2615 27.6815 35.2665C27.6938 35.3015 27.7057 35.3361 27.7175 35.3712Z" fill="#5138ED"/>
<path d="M33.3463 27.2228C33.0056 27.7042 32.6841 28.0886 32.4418 28.5181C32.1612 29.0155 31.7919 29.1489 31.2266 29.1457C26.7642 29.1193 22.3013 29.1311 17.8384 29.1311C17.658 29.1311 17.4776 29.1311 17.2504 29.1311C17.1593 28.5003 17.0714 27.8919 16.988 27.3112C17.0249 27.2675 17.0331 27.2556 17.0436 27.2456C17.0545 27.2351 17.0668 27.2178 17.0787 27.2178C22.36 27.2087 27.6418 27.2005 32.9232 27.1941C33.0275 27.1932 33.1313 27.2073 33.3463 27.2228Z" fill="#000031"/>
<path d="M30.5282 31.4289C30.1876 32.0515 29.8474 32.6741 29.5067 33.2976C25.783 33.2976 22.0897 33.2976 18.3578 33.2976C18.1802 32.675 18.0039 32.0574 17.8113 31.3811C18.0768 31.3702 18.2831 31.3547 18.4899 31.3547C22.4459 31.3533 26.4019 31.3533 30.3575 31.3542C30.4025 31.3542 30.4476 31.3624 30.4932 31.367C30.4918 31.3952 30.5036 31.4157 30.5282 31.4289Z" fill="#000031"/>
<path d="M65.9126 31.4339C65.7436 32.0456 65.5747 32.6568 65.4002 33.2876C61.9753 33.2876 58.5745 33.2876 55.1235 33.2876C55.1745 32.6554 55.2643 32.0365 55.3859 31.4212C55.4178 31.4016 55.4496 31.382 55.4815 31.3624C57.7228 31.3592 59.9636 31.3538 62.2048 31.3528C63.4158 31.3524 64.6273 31.3601 65.8384 31.3647C65.863 31.3879 65.8875 31.4107 65.9126 31.4339Z" fill="#000031"/>
<path d="M12.1896 31.4238C12.0206 32.0487 11.8512 32.6731 11.6841 33.2902C8.3338 33.2902 5.03455 33.2902 1.67017 33.2902C1.85644 32.6294 2.03133 32.0086 2.20759 31.3833C2.30551 31.3705 2.3793 31.3532 2.45308 31.3532C5.66853 31.3546 8.88398 31.3573 12.0994 31.36C12.1299 31.3814 12.16 31.4028 12.1896 31.4238Z" fill="#000031"/>
<path d="M46.7424 31.3747C46.6326 32.0347 46.5297 32.6509 46.4231 33.2912C43.1125 33.2912 39.7996 33.2912 36.4539 33.2912C36.5477 32.64 36.6379 32.016 36.7303 31.3747C40.0646 31.3747 43.3643 31.3747 46.7424 31.3747Z" fill="#000031"/>
<path d="M55.9966 28.8365C56.0344 28.2899 56.0508 27.7397 56.2302 27.216C59.7513 27.216 63.2327 27.216 66.7697 27.216C66.5825 27.8709 66.4053 28.489 66.2218 29.1307C66.0583 29.1307 65.9239 29.1307 65.7896 29.1307C62.6511 29.1307 59.5126 29.1307 56.3746 29.1302C56.2685 29.1302 56.1582 29.1425 56.0585 29.117C56.0157 29.1061 55.9938 29.0132 55.9624 28.9576C55.9733 28.9175 55.9847 28.877 55.9966 28.8365Z" fill="#000031"/>
<path d="M37.0623 29.0383C37.2194 28.4399 37.3765 27.8414 37.5391 27.222C40.878 27.222 44.1904 27.222 47.5662 27.222C47.4765 27.8619 47.39 28.4809 47.302 29.1067C47.154 29.1167 47.0502 29.1299 46.9463 29.1299C43.7619 29.1308 40.5778 29.1313 37.3934 29.1294C37.2882 29.1294 37.1834 29.1117 37.0782 29.1026C37.0818 29.0793 37.0768 29.0575 37.0623 29.0383Z" fill="#000031"/>
<path d="M13.0576 27.1924C12.8681 27.8633 12.6973 28.47 12.5192 29.1012C9.19584 29.1012 5.8843 29.1012 2.5354 29.1012C2.56045 28.9746 2.57776 28.8598 2.60599 28.7473C2.70893 28.337 2.81641 27.928 2.9198 27.5181C2.97354 27.3054 3.07647 27.1788 3.32514 27.1888C3.71865 27.2043 4.11307 27.1929 4.50703 27.1929C7.17412 27.1929 9.84121 27.1929 12.5088 27.1929C12.6714 27.1924 12.8339 27.1924 13.0576 27.1924Z" fill="#000031"/>
<path d="M81.9679 33.3003C81.8167 33.3053 81.6655 33.3149 81.5139 33.3149C78.5425 33.3158 75.5712 33.3153 72.5999 33.3153C72.4368 33.3153 72.2738 33.3153 72.1084 33.3153C72.0315 32.6604 71.96 32.0533 71.8871 31.4334C71.8848 31.4361 71.8935 31.4248 71.9035 31.4143C71.914 31.4034 71.9253 31.3842 71.9367 31.3842C75.0438 31.3765 78.1513 31.3701 81.2583 31.3651C81.3312 31.3651 81.4041 31.3806 81.5193 31.3938C81.4993 32.0537 81.6947 32.6499 81.998 33.2151C81.988 33.2438 81.9779 33.272 81.9679 33.3003Z" fill="#000031"/>
<path d="M82.9113 27.4765C82.5574 28.0089 82.2432 28.473 81.9398 28.9435C81.8456 29.0893 81.7285 29.1498 81.5609 29.1316C81.5158 29.1266 81.4698 29.1312 81.4243 29.1312C78.4507 29.1312 75.4771 29.1312 72.5035 29.1312C72.3978 29.1312 72.2926 29.1312 72.1855 29.1312C72.2079 28.8078 72.5403 28.0827 72.9407 27.477C76.2249 27.4765 79.526 27.4765 82.9113 27.4765Z" fill="#000031"/>
<path d="M21.4035 4.4545C21.3725 4.42945 21.3415 4.40485 21.3105 4.3798C21.3415 4.40485 21.3725 4.4299 21.4035 4.4545Z" fill="#5138ED"/>
<path d="M12.1896 31.4238C12.1595 31.4024 12.1299 31.3814 12.0999 31.36C12.1299 31.3814 12.16 31.4028 12.1896 31.4238Z" fill="#000031"/>
<path d="M30.5287 31.4296C30.5039 31.4163 30.4919 31.3955 30.4933 31.367C30.5163 31.3674 30.5393 31.3684 30.5624 31.3688C30.5513 31.3891 30.5398 31.4094 30.5287 31.4296Z" fill="#000031"/>
<path d="M55.4811 31.3625C55.4493 31.382 55.4174 31.4016 55.3855 31.4212C55.4174 31.4016 55.4493 31.382 55.4811 31.3625Z" fill="#000031"/>
<path d="M37.0627 29.0383C37.0774 29.0576 37.0829 29.0793 37.0788 29.1033C37.0636 29.0908 37.0479 29.0779 37.0327 29.0655C37.0424 29.0567 37.0525 29.0475 37.0627 29.0383Z" fill="#000031"/>
<path d="M65.9134 31.4346C65.8881 31.4111 65.8632 31.3876 65.8379 31.3645C65.8632 31.388 65.8881 31.4111 65.9134 31.4346Z" fill="#000031"/>
<path d="M55.9966 28.8365C55.9852 28.877 55.9738 28.9175 55.9624 28.9581C55.9733 28.9175 55.9847 28.877 55.9966 28.8365Z" fill="#000031"/>
<path d="M56.76 24.8577C56.7858 24.883 56.8121 24.9083 56.8379 24.9337C56.8121 24.9083 56.7858 24.883 56.76 24.8577Z" fill="#5138ED"/>
<path d="M11.3595 35.3373C11.336 35.3138 11.3121 35.2908 11.2886 35.2673C11.3121 35.2908 11.336 35.3142 11.3595 35.3373Z" fill="#5138ED"/>
<path d="M18.7639 35.264C18.7367 35.288 18.7096 35.3124 18.6824 35.3364C18.71 35.3124 18.7367 35.2885 18.7639 35.264Z" fill="#5138ED"/>
<path d="M37.8914 24.8582C37.9214 24.8833 37.9515 24.9083 37.9811 24.9334C37.9515 24.9083 37.9214 24.8833 37.8914 24.8582Z" fill="#5138ED"/>
<path d="M27.7174 35.3712C27.7056 35.3366 27.6937 35.3015 27.6819 35.2669C27.7042 35.271 27.7265 35.2751 27.7488 35.2796C27.7384 35.3101 27.7279 35.3407 27.7174 35.3712Z" fill="#5138ED"/>
<path d="M46.1463 35.3766C46.1248 35.3407 46.1034 35.3047 46.082 35.2691C46.1034 35.3047 46.1248 35.3407 46.1463 35.3766Z" fill="#5138ED"/>
<path d="M3.37549 24.8577C3.40359 24.883 3.43169 24.9088 3.45933 24.9341C3.43169 24.9088 3.40359 24.8835 3.37549 24.8577Z" fill="#5138ED"/>
<path d="M65.0209 35.3369C64.9941 35.313 64.9674 35.2886 64.9412 35.2646C64.9674 35.2886 64.9941 35.3125 65.0209 35.3369Z" fill="#5138ED"/>
<path d="M85.0934 35.3215C85.0565 35.3101 85.0196 35.2983 84.9832 35.2869C85.02 35.2987 85.0569 35.3101 85.0934 35.3215Z" fill="#5138ED"/>
<path d="M18.7134 35.5155C18.7261 35.5511 18.7389 35.5861 18.7521 35.6217C18.7393 35.5866 18.7261 35.5511 18.7134 35.5155Z" fill="#5138ED"/>
<path d="M58.7145 15.0197C58.699 14.9887 58.6839 14.9573 58.6685 14.9263C58.6835 14.9573 58.699 14.9887 58.7145 15.0197Z" fill="#5138ED"/>
<path d="M121.63 32.3369C121.403 32.2338 121.238 32.0688 121.135 31.8419C121.032 31.6151 120.98 31.3367 120.98 31.0067C120.98 30.3468 121.135 29.5426 121.444 28.5939C121.774 27.6247 122.104 26.6967 122.434 25.8099C122.702 25.1294 122.991 24.3251 123.3 23.3971C123.63 22.4485 123.96 21.4586 124.29 20.4275C124.641 19.3758 124.971 18.3653 125.28 17.3961C125.589 16.4268 125.847 15.571 126.053 14.8286C126.28 14.0656 126.435 13.5088 126.517 13.1582C124.909 13.7975 123.465 14.5605 122.187 15.4473C120.908 16.3134 119.712 17.293 118.598 18.3859C117.505 19.4583 116.402 20.6338 115.288 21.9123H119.65C119.733 21.9123 119.918 21.9226 120.207 21.9433C120.496 21.9433 120.805 21.9639 121.135 22.0051C121.465 22.0258 121.743 22.067 121.97 22.1289C122.217 22.1701 122.341 22.2423 122.341 22.3454C122.341 22.5104 122.135 22.6547 121.723 22.7785C121.331 22.8816 120.815 22.9744 120.176 23.0569C119.557 23.1187 118.908 23.1703 118.227 23.2115C117.547 23.2322 116.918 23.2528 116.34 23.2734C115.763 23.294 115.33 23.3043 115.041 23.3043C114.649 23.3043 114.216 23.5209 113.742 23.9539C113.267 24.387 112.793 24.9541 112.319 25.6553C111.865 26.3564 111.432 27.1091 111.02 27.9134C110.628 28.697 110.277 29.4498 109.968 30.1715C109.679 30.8933 109.473 31.5017 109.349 31.9966C109.349 32.0378 109.339 32.0894 109.318 32.1513C109.298 32.2131 109.256 32.2441 109.195 32.2441C109.071 32.2441 108.947 32.1306 108.823 31.9038C108.679 31.6976 108.607 31.5429 108.607 31.4398C108.607 30.883 108.741 30.2334 109.009 29.491C109.277 28.7486 109.607 27.9959 109.999 27.2329C110.411 26.4492 110.834 25.7171 111.267 25.0366C111.721 24.3561 112.123 23.7993 112.473 23.3662C111.958 23.3662 111.432 23.3765 110.896 23.3971C110.36 23.3971 109.824 23.3971 109.287 23.3971C109.164 23.3971 109.04 23.3559 108.916 23.2734C108.772 23.1703 108.679 23.0569 108.638 22.9331C108.72 22.7063 108.968 22.5516 109.38 22.4691C109.793 22.366 110.267 22.3042 110.803 22.2835C111.36 22.2423 111.886 22.2114 112.381 22.1907C112.876 22.1701 113.237 22.1289 113.463 22.067C113.835 21.6133 114.34 21.0565 114.979 20.3966C115.618 19.7367 116.35 19.0355 117.175 18.2931C118 17.5507 118.866 16.8186 119.774 16.0969C120.681 15.3751 121.578 14.7152 122.465 14.1171C123.352 13.5191 124.187 13.0448 124.971 12.6942C125.754 12.323 126.424 12.1374 126.981 12.1374C127.146 12.1374 127.373 12.1683 127.662 12.2302C127.95 12.2714 128.219 12.3539 128.466 12.4777C128.713 12.6014 128.837 12.7767 128.837 13.0035C128.837 13.2716 128.693 13.7975 128.404 14.5811C128.136 15.3648 127.775 16.3031 127.321 17.3961C126.868 18.4684 126.383 19.6026 125.868 20.7987C125.352 21.9742 124.857 23.0981 124.383 24.1705C123.909 25.2428 123.506 26.1502 123.176 26.8926C122.702 28.0474 122.352 28.9754 122.125 29.6766C121.918 30.3778 121.815 30.9346 121.815 31.347C121.815 31.6563 121.877 31.9244 122.001 32.1513C122.022 32.1719 121.98 32.2131 121.877 32.275C121.774 32.3369 121.692 32.3575 121.63 32.3369ZM124.189 40.2558C123.385 40.2558 122.839 40.0186 122.55 39.5443C122.241 39.07 122.086 38.4926 122.086 37.8121C122.086 37.2759 122.148 36.7191 122.272 36.1417C122.395 35.5849 122.529 35.0796 122.674 34.6259C123.396 32.2338 124.375 29.9859 125.612 27.8825C126.87 25.7584 128.355 23.789 130.067 21.9742C129.964 21.8298 129.809 21.6752 129.603 21.5102C129.417 21.3452 129.324 21.1802 129.324 21.0153C129.324 20.809 129.386 20.675 129.51 20.6131C129.634 20.5306 129.778 20.4894 129.943 20.4894C129.984 20.4894 130.149 20.51 130.438 20.5513C130.747 20.5719 131.026 20.675 131.273 20.8606L132.913 19.1593C133.036 19.0355 133.15 18.9118 133.253 18.7881C133.356 18.6437 133.469 18.52 133.593 18.4169C133.696 18.3138 133.799 18.2313 133.903 18.1694C134.026 18.1075 134.16 18.0766 134.305 18.0766C134.532 18.0766 134.697 18.1591 134.8 18.3241C134.903 18.4684 134.954 18.6334 134.954 18.819C134.954 19.0252 134.903 19.2108 134.8 19.3758C134.697 19.5202 134.562 19.6748 134.397 19.8398C134.068 20.1698 133.696 20.51 133.284 20.8606C132.871 21.2112 132.562 21.5205 132.356 21.7886C132.686 22.0979 132.954 22.397 133.16 22.6857C133.366 22.9538 133.542 23.294 133.686 23.7065C133.748 23.9127 133.799 24.1189 133.841 24.3251C133.882 24.5314 133.903 24.7479 133.903 24.9747C133.903 25.7584 133.686 26.4905 133.253 27.171C132.841 27.8515 132.284 28.4496 131.583 28.9651C130.881 29.4601 130.118 29.8519 129.293 30.1406C128.469 30.4293 127.664 30.5737 126.881 30.5737C126.674 30.5737 126.458 30.5324 126.231 30.4499C126.025 30.3881 125.839 30.285 125.674 30.1406C125.406 30.5943 125.138 31.1717 124.87 31.8729C124.602 32.5946 124.354 33.337 124.128 34.1001C123.901 34.8837 123.725 35.6158 123.602 36.2963C123.457 36.9975 123.385 37.5543 123.385 37.9667C123.385 38.3998 123.457 38.7401 123.602 38.9875C123.746 39.2556 123.994 39.3897 124.344 39.3897C124.406 39.3897 124.571 39.3794 124.839 39.3587C125.128 39.3587 125.386 39.2969 125.612 39.1731C125.654 39.4618 125.53 39.7093 125.241 39.9155C124.953 40.1424 124.602 40.2558 124.189 40.2558ZM127.84 29.8622C127.943 29.8622 128.036 29.8622 128.118 29.8622C128.221 29.8416 128.314 29.821 128.396 29.8003C129.098 29.6766 129.757 29.4291 130.376 29.0579C130.995 28.6867 131.49 28.2021 131.861 27.6041C132.253 26.9854 132.449 26.2842 132.449 25.5006C132.449 25.0263 132.335 24.521 132.108 23.9849C131.902 23.4281 131.562 23.0053 131.088 22.7166C130.325 23.5002 129.469 24.4695 128.52 25.6243C127.592 26.7586 126.757 27.9959 126.015 29.3363C126.118 29.2332 126.21 29.1817 126.293 29.1817C126.396 29.1817 126.489 29.2229 126.571 29.3054C126.674 29.3879 126.736 29.4498 126.757 29.491C127.004 29.7385 127.365 29.8622 127.84 29.8622ZM132.98 40.2558C132.176 40.2558 131.629 40.0186 131.341 39.5443C131.031 39.07 130.877 38.4926 130.877 37.8121C130.877 37.2759 130.939 36.7191 131.062 36.1417C131.186 35.5849 131.32 35.0796 131.464 34.6259C132.186 32.2338 133.166 29.9859 134.403 27.8825C135.661 25.7584 137.146 23.789 138.857 21.9742C138.754 21.8298 138.6 21.6752 138.393 21.5102C138.208 21.3452 138.115 21.1802 138.115 21.0153C138.115 20.809 138.177 20.675 138.301 20.6131C138.424 20.5306 138.569 20.4894 138.734 20.4894C138.775 20.4894 138.94 20.51 139.229 20.5513C139.538 20.5719 139.816 20.675 140.064 20.8606L141.703 19.1593C141.827 19.0355 141.94 18.9118 142.044 18.7881C142.147 18.6437 142.26 18.52 142.384 18.4169C142.487 18.3138 142.59 18.2313 142.693 18.1694C142.817 18.1075 142.951 18.0766 143.095 18.0766C143.322 18.0766 143.487 18.1591 143.59 18.3241C143.693 18.4684 143.745 18.6334 143.745 18.819C143.745 19.0252 143.693 19.2108 143.59 19.3758C143.487 19.5202 143.353 19.6748 143.188 19.8398C142.858 20.1698 142.487 20.51 142.075 20.8606C141.662 21.2112 141.353 21.5205 141.147 21.7886C141.476 22.0979 141.745 22.397 141.951 22.6857C142.157 22.9538 142.332 23.294 142.477 23.7065C142.539 23.9127 142.59 24.1189 142.631 24.3251C142.673 24.5314 142.693 24.7479 142.693 24.9747C142.693 25.7584 142.477 26.4905 142.044 27.171C141.631 27.8515 141.074 28.4496 140.373 28.9651C139.672 29.4601 138.909 29.8519 138.084 30.1406C137.259 30.4293 136.455 30.5737 135.671 30.5737C135.465 30.5737 135.249 30.5324 135.022 30.4499C134.816 30.3881 134.63 30.285 134.465 30.1406C134.197 30.5943 133.929 31.1717 133.661 31.8729C133.393 32.5946 133.145 33.337 132.918 34.1001C132.691 34.8837 132.516 35.6158 132.392 36.2963C132.248 36.9975 132.176 37.5543 132.176 37.9667C132.176 38.3998 132.248 38.7401 132.392 38.9875C132.537 39.2556 132.784 39.3897 133.135 39.3897C133.197 39.3897 133.362 39.3794 133.63 39.3587C133.918 39.3587 134.176 39.2969 134.403 39.1731C134.444 39.4618 134.321 39.7093 134.032 39.9155C133.743 40.1424 133.393 40.2558 132.98 40.2558ZM136.63 29.8622C136.733 29.8622 136.826 29.8622 136.909 29.8622C137.012 29.8416 137.105 29.821 137.187 29.8003C137.888 29.6766 138.548 29.4291 139.167 29.0579C139.785 28.6867 140.28 28.2021 140.652 27.6041C141.043 26.9854 141.239 26.2842 141.239 25.5006C141.239 25.0263 141.126 24.521 140.899 23.9849C140.693 23.4281 140.353 23.0053 139.878 22.7166C139.115 23.5002 138.259 24.4695 137.311 25.6243C136.383 26.7586 135.548 27.9959 134.805 29.3363C134.908 29.2332 135.001 29.1817 135.084 29.1817C135.187 29.1817 135.28 29.2229 135.362 29.3054C135.465 29.3879 135.527 29.4498 135.548 29.491C135.795 29.7385 136.156 29.8622 136.63 29.8622ZM144.926 29.955C143.689 29.955 143.07 29.3466 143.07 28.1299C143.07 27.6556 143.194 27.1091 143.441 26.4905C143.709 25.8512 144.06 25.2119 144.493 24.5726C144.926 23.9333 145.411 23.3456 145.947 22.8094C146.483 22.2526 147.029 21.8092 147.586 21.4793C148.164 21.1287 148.7 20.9534 149.195 20.9534C149.36 20.9534 149.473 20.9946 149.535 21.0771C149.618 21.139 149.679 21.2524 149.721 21.4174C149.762 21.4999 149.793 21.5927 149.813 21.6958C149.834 21.7989 149.865 21.902 149.906 22.0051C149.989 22.1495 150.061 22.2938 150.123 22.4382C150.185 22.5826 150.216 22.7372 150.216 22.9022C150.216 23.1084 150.164 23.294 150.061 23.459C149.958 23.6034 149.834 23.7374 149.69 23.8611C149.483 24.0467 149.174 24.2839 148.762 24.5726C148.349 24.8407 147.896 25.1191 147.401 25.4078C146.926 25.6759 146.462 25.913 146.009 26.1193C145.576 26.3255 145.225 26.4492 144.957 26.4905C144.771 26.7792 144.575 27.1401 144.369 27.5731C144.184 27.9856 144.091 28.3671 144.091 28.7177C144.091 28.9033 144.132 29.0682 144.214 29.2126C144.318 29.357 144.472 29.4291 144.678 29.4291C145.008 29.4291 145.442 29.2745 145.978 28.9651C146.534 28.6352 147.112 28.2434 147.71 27.7897C148.308 27.3154 148.854 26.8617 149.349 26.4286C149.865 25.9749 150.246 25.6243 150.494 25.3769L151.484 24.3251C151.608 24.2014 151.742 24.1395 151.886 24.1395C152.01 24.1395 152.072 24.1911 152.072 24.2942C152.072 24.4179 151.896 24.6757 151.546 25.0675C151.195 25.4387 150.772 25.8615 150.277 26.3358C149.803 26.7895 149.36 27.2122 148.947 27.6041C148.535 27.9753 148.267 28.2124 148.143 28.3155C147.71 28.6867 147.215 29.0579 146.658 29.4291C146.101 29.7797 145.524 29.955 144.926 29.955ZM145.483 25.6862C145.689 25.5625 145.998 25.3666 146.411 25.0985C146.844 24.8304 147.287 24.5314 147.741 24.2014C148.195 23.8714 148.576 23.5415 148.885 23.2115C149.215 22.8816 149.38 22.5929 149.38 22.3454C149.38 22.2835 149.37 22.232 149.349 22.1907C149.329 22.1701 149.288 22.1598 149.226 22.1598C148.958 22.1598 148.638 22.3042 148.267 22.5929C147.896 22.8816 147.524 23.2322 147.153 23.6446C146.782 24.0364 146.442 24.4282 146.132 24.8201C145.844 25.1913 145.627 25.48 145.483 25.6862ZM153.611 30.6046C153.281 30.6046 152.931 30.4396 152.559 30.1097C152.209 29.7591 152.034 29.4188 152.034 29.0889C152.034 28.6764 152.178 28.2124 152.467 27.6969C152.755 27.1607 153.096 26.6451 153.487 26.1502C153.879 25.6553 154.22 25.2325 154.508 24.8819C154.797 24.5107 154.941 24.2633 154.941 24.1395V24.0777C154.756 23.9127 154.58 23.758 154.415 23.6137C154.25 23.4487 154.024 23.3662 153.735 23.3662C153.529 23.3662 153.261 23.4899 152.931 23.7374C152.621 23.9849 152.302 24.2736 151.972 24.6035C151.642 24.9335 151.343 25.2428 151.075 25.5315C150.807 25.8202 150.611 26.0162 150.487 26.1193C150.404 26.2018 150.322 26.2533 150.239 26.2739C150.178 26.2946 150.126 26.3049 150.085 26.3049C150.002 26.3049 149.961 26.2636 149.961 26.1811C149.961 26.0986 150.002 26.0162 150.085 25.9337C150.415 25.5006 150.796 25.0572 151.229 24.6035C151.662 24.1498 152.054 23.7374 152.405 23.3662C152.755 22.9744 152.962 22.696 153.023 22.531C153.188 22.0567 153.353 21.6339 153.518 21.2627C153.704 20.8915 153.993 20.541 154.385 20.211C154.55 20.046 154.745 19.912 154.972 19.8089C155.199 19.7058 155.426 19.6542 155.653 19.6542C155.859 19.6542 156.024 19.7161 156.148 19.8398C156.292 19.9429 156.364 20.1079 156.364 20.3347C156.364 20.5822 156.251 20.8297 156.024 21.0771C155.818 21.3246 155.57 21.5618 155.282 21.7886C154.993 21.9948 154.735 22.1804 154.508 22.3454C154.302 22.5104 154.209 22.6444 154.23 22.7475C154.354 22.83 154.591 22.9331 154.941 23.0569C155.313 23.1806 155.57 23.2425 155.715 23.2425C155.88 23.2425 156.034 23.2115 156.179 23.1497C156.323 23.0878 156.467 23.0569 156.612 23.0569C156.818 23.0569 157.024 23.1187 157.23 23.2425C157.437 23.3662 157.54 23.5518 157.54 23.7993C157.54 24.0055 157.457 24.2014 157.292 24.387C157.148 24.552 156.993 24.6963 156.828 24.8201C156.581 25.0057 156.251 25.2841 155.838 25.6553C155.426 26.0265 155.003 26.4389 154.57 26.8926C154.158 27.3463 153.797 27.8 153.487 28.2537C153.199 28.6867 153.054 29.0682 153.054 29.3982C153.054 29.4807 153.075 29.5632 153.116 29.6457C153.137 29.6663 153.178 29.6766 153.24 29.6766C153.652 29.6766 154.116 29.491 154.632 29.1198C155.148 28.7486 155.663 28.2949 156.179 27.7587C156.715 27.2226 157.21 26.6967 157.663 26.1811C158.138 25.645 158.54 25.2325 158.87 24.9438C158.911 24.9026 158.963 24.8613 159.025 24.8201C159.086 24.7788 159.148 24.7582 159.21 24.7582C159.313 24.7582 159.365 24.8304 159.365 24.9747C159.365 25.0572 159.22 25.2634 158.932 25.5934C158.664 25.9234 158.313 26.3152 157.88 26.7689C157.447 27.2226 156.993 27.6866 156.519 28.1609C156.065 28.6352 155.642 29.0579 155.251 29.4291C154.859 29.7797 154.58 30.0272 154.415 30.1715C154.189 30.3571 154.024 30.4706 153.921 30.5118C153.817 30.5737 153.714 30.6046 153.611 30.6046ZM163.66 30.5118C163.475 30.5118 163.258 30.4293 163.011 30.2643C162.784 30.0994 162.588 29.9138 162.423 29.7075C162.258 29.4807 162.175 29.2745 162.175 29.0889C162.175 28.7795 162.289 28.3671 162.516 27.8515C162.743 27.3154 163 26.7895 163.289 26.2739C163.598 25.7584 163.835 25.3769 164 25.1294C163.712 25.3769 163.341 25.779 162.887 26.3358C162.454 26.872 161.979 27.4494 161.464 28.0681C160.969 28.6661 160.484 29.1817 160.01 29.6147C159.556 30.0478 159.165 30.2643 158.835 30.2643C158.381 30.2643 158.01 30.1097 157.721 29.8003C157.453 29.4704 157.319 29.0786 157.319 28.6249C157.319 28.0062 157.494 27.3463 157.845 26.6451C158.195 25.9234 158.649 25.2325 159.206 24.5726C159.783 23.8921 160.402 23.2734 161.062 22.7166C161.742 22.1598 162.402 21.7164 163.042 21.3865C163.701 21.0565 164.289 20.8915 164.805 20.8915C165.362 20.8915 165.815 21.0256 166.166 21.2937C166.516 21.5411 166.692 21.9226 166.692 22.4382C166.692 22.5207 166.671 22.6754 166.63 22.9022C166.609 23.129 166.537 23.2425 166.413 23.2425C166.351 23.2425 166.248 23.1497 166.104 22.9641C165.98 22.7785 165.805 22.5929 165.578 22.4073C165.351 22.2217 165.063 22.1289 164.712 22.1289C164.135 22.1289 163.526 22.3454 162.887 22.7785C162.268 23.1909 161.67 23.7271 161.093 24.387C160.515 25.0263 160.01 25.6862 159.577 26.3667C159.144 27.0473 158.814 27.635 158.587 28.1299C158.525 28.2743 158.463 28.429 158.402 28.5939C158.36 28.7589 158.34 28.9239 158.34 29.0889C158.34 29.2745 158.391 29.3673 158.494 29.3673C158.597 29.3673 158.814 29.2538 159.144 29.027C159.495 28.8002 159.742 28.6352 159.886 28.5321C160.608 28.0165 161.289 27.4288 161.928 26.7689C162.588 26.109 163.176 25.4284 163.691 24.7273C163.856 24.5004 164.011 24.2736 164.155 24.0467C164.299 23.8199 164.444 23.6034 164.588 23.3971C164.691 23.2528 164.794 23.1806 164.898 23.1806C165.124 23.1806 165.341 23.3353 165.547 23.6446C165.774 23.9539 165.887 24.222 165.887 24.4489C165.887 24.552 165.867 24.6138 165.826 24.6345C165.805 24.6551 165.743 24.717 165.64 24.8201C165.331 25.1294 165.021 25.5625 164.712 26.1193C164.423 26.6761 164.165 27.2432 163.939 27.8206C163.732 28.3774 163.578 28.8517 163.475 29.2435C163.454 29.3054 163.433 29.3879 163.413 29.491C163.413 29.5735 163.464 29.6044 163.567 29.5838C163.774 29.5219 164.104 29.2951 164.557 28.9033C165.032 28.4908 165.537 28.0268 166.073 27.5113C166.63 26.9751 167.125 26.4802 167.558 26.0265C168.011 25.5728 168.311 25.2531 168.455 25.0675C168.496 25.0263 168.537 24.985 168.579 24.9438C168.64 24.8819 168.702 24.851 168.764 24.851C168.909 24.851 168.981 24.9232 168.981 25.0675C168.981 25.15 168.816 25.3975 168.486 25.8099C168.156 26.2018 167.743 26.6658 167.248 27.2019C166.754 27.7175 166.248 28.233 165.733 28.7486C165.217 29.2435 164.763 29.6663 164.372 30.0169C164 30.3468 163.763 30.5118 163.66 30.5118ZM169.954 30.5427C169.603 30.5427 169.18 30.4087 168.685 30.1406C168.19 29.8725 167.85 29.5838 167.665 29.2745C167.541 29.0682 167.479 28.8208 167.479 28.5321C167.479 27.8722 167.716 26.9957 168.19 25.9027C168.685 24.7891 169.304 23.593 170.046 22.3145C170.376 21.737 170.799 21.0668 171.315 20.3038C171.851 19.5408 172.449 18.7571 173.109 17.9529C173.769 17.128 174.46 16.3443 175.181 15.6019C175.924 14.8595 176.656 14.2099 177.378 13.6531C178.12 13.0963 178.821 12.7045 179.481 12.4777C179.749 12.3746 179.986 12.323 180.193 12.323C180.584 12.323 180.853 12.457 180.997 12.7251C181.162 12.9726 181.378 13.1788 181.646 13.3438C181.811 13.4469 181.894 13.6119 181.894 13.8387C181.894 14.313 181.636 14.8802 181.121 15.5401C180.605 16.2 179.935 16.9011 179.11 17.6435C178.285 18.3859 177.398 19.1283 176.45 19.8707C175.501 20.5925 174.583 21.2627 173.697 21.8814C172.83 22.5001 172.088 23.0156 171.469 23.4281C170.851 23.8405 170.459 24.0983 170.294 24.2014C169.985 24.7788 169.696 25.4387 169.428 26.1811C169.16 26.9235 169.026 27.6247 169.026 28.2846C169.026 28.5321 169.057 28.8105 169.118 29.1198C169.201 29.4085 169.407 29.5529 169.737 29.5529C170.046 29.5529 170.407 29.4394 170.82 29.2126C171.232 28.9858 171.634 28.7383 172.026 28.4702C172.418 28.1815 172.727 27.9443 172.954 27.7587C173.49 27.3257 173.965 26.8823 174.377 26.4286C174.79 25.9749 175.274 25.4594 175.831 24.8819C175.872 24.8407 175.913 24.8098 175.955 24.7891C175.996 24.7479 176.048 24.7273 176.109 24.7273C176.233 24.7273 176.295 24.7994 176.295 24.9438C176.295 25.0675 176.243 25.181 176.14 25.2841C175.315 26.1914 174.449 27.1298 173.542 28.099C172.655 29.0682 171.665 29.8313 170.572 30.3881C170.366 30.4912 170.16 30.5427 169.954 30.5427ZM171.284 22.5929C171.593 22.4898 172.026 22.2423 172.583 21.8505C173.14 21.438 173.758 20.9534 174.439 20.3966C175.14 19.8398 175.841 19.2521 176.542 18.6334C177.264 17.9941 177.924 17.3858 178.522 16.8083C179.141 16.2103 179.646 15.705 180.038 15.2926C180.45 14.8595 180.688 14.5605 180.749 14.3955C180.791 14.2718 180.811 14.1893 180.811 14.1481C180.811 13.9831 180.729 13.8697 180.564 13.8078C180.419 13.7459 180.254 13.715 180.069 13.715C179.966 13.715 179.863 13.7253 179.76 13.7459C179.656 13.7666 179.564 13.7872 179.481 13.8078C179.131 13.9315 178.667 14.2409 178.089 14.7358C177.512 15.2101 176.893 15.7978 176.233 16.499C175.573 17.1795 174.913 17.9013 174.253 18.6643C173.614 19.4274 173.026 20.1594 172.49 20.8606C171.975 21.5411 171.573 22.1186 171.284 22.5929Z" fill="#000031"/>
</svg>
